<svg xmlns="http://www.w3.org/2000/svg" xmlns:xlink="http://www.w3.org/1999/xlink" width="54.215" height="33.66" viewBox="0 0 54.215 33.66"><defs><style>.a{fill:none;clip-rule:evenodd;}.b{clip-path:url(#a);}.c{fill:#ff5f00;}.d{clip-path:url(#b);}.e{fill:#eb001b;}.f{clip-path:url(#c);}.g{fill:#f79e1b;}</style><clipPath id="a"><path class="a" d="M18.189-1.171H32.733v-26.52H18.189Z" transform="translate(-18.189 27.691)"/></clipPath><clipPath id="b"><path class="a" d="M20.545-14.17A16.876,16.876,0,0,1,26.893-27.4,16.421,16.421,0,0,0,16.621-31,16.726,16.726,0,0,0,0-14.17,16.726,16.726,0,0,0,16.621,2.66a16.421,16.421,0,0,0,10.272-3.6A16.877,16.877,0,0,1,20.545-14.17" transform="translate(0 31)"/></clipPath><clipPath id="c"><path class="a" d="M51.3-3.742v-.653h-.169l-.193.449-.194-.449H50.58v.653H50.7v-.493l.182.425H51l.182-.426v.494Zm-1.067,0v-.542h.216v-.11H49.9v.11h.216v.542ZM51.823-14.17A16.727,16.727,0,0,1,35.2,2.659,16.42,16.42,0,0,1,24.93-.939,16.876,16.876,0,0,0,31.279-14.17,16.877,16.877,0,0,0,24.93-27.4,16.42,16.42,0,0,1,35.2-31,16.727,16.727,0,0,1,51.823-14.17Z" transform="translate(-24.93 31)"/></clipPath></defs><g class="b" transform="translate(19.835 3.57)"><path class="c" d="M13.189-32.691H38.521V4.726H13.189Z" transform="translate(-18.582 27.242)"/></g><g class="d" transform="translate(0 0)"><path class="e" d="M-5-36H32.681V8.533H-5Z" transform="translate(-0.394 30.563)"/></g><g class="f" transform="translate(27.322)"><path class="g" d="M19.93-36H57.611V8.533H19.93Z" transform="translate(-25.324 30.563)"/></g></svg>