<svg xmlns="http://www.w3.org/2000/svg" xmlns:xlink="http://www.w3.org/1999/xlink" width="38.656" height="24" viewBox="0 0 38.656 24"><defs><style>.a{fill:none;clip-rule:evenodd;}.b{clip-path:url(#a);}.c{fill:#ff5f00;}.d{clip-path:url(#b);}.e{fill:#eb001b;}.f{clip-path:url(#c);}.g{fill:#f79e1b;}</style><clipPath id="a"><path class="a" d="M18.189-8.791h10.39v-18.9H18.189Z" transform="translate(-18.189 27.691)"/></clipPath><clipPath id="b"><path class="a" d="M14.676-19a12.025,12.025,0,0,1,4.535-9.434A11.744,11.744,0,0,0,11.873-31,11.937,11.937,0,0,0,0-19,11.937,11.937,0,0,0,11.873-7a11.744,11.744,0,0,0,7.338-2.566A12.025,12.025,0,0,1,14.676-19" transform="translate(0 31)"/></clipPath><clipPath id="c"><path class="a" d="M43.771-11.564v-.466h-.12l-.138.32-.139-.32h-.12v.466h.085v-.351l.13.3h.088l.13-.3v.352Zm-.762,0v-.386h.154v-.079H42.77v.079h.154v.386ZM44.141-19A11.937,11.937,0,0,1,32.268-7,11.743,11.743,0,0,1,24.93-9.566,12.025,12.025,0,0,0,29.465-19a12.026,12.026,0,0,0-4.535-9.434A11.743,11.743,0,0,1,32.268-31,11.937,11.937,0,0,1,44.141-19Z" transform="translate(-24.93 31)"/></clipPath></defs><g class="b" transform="translate(14.133 2.55)"><path class="c" d="M13.189-32.691h18.1V-6.025h-18.1Z" transform="translate(-17.042 28.808)"/></g><g class="d" transform="translate(0 0)"><path class="e" d="M-5-36H21.918V-4.247H-5Z" transform="translate(1.147 32.123)"/></g><g class="f" transform="translate(19.445)"><path class="g" d="M19.93-36H46.848V-4.247H19.93Z" transform="translate(-23.783 32.124)"/></g></svg>