<svg id="Amex" xmlns="http://www.w3.org/2000/svg" width="88.268" height="88.049" viewBox="0 0 88.268 88.049">
  <path id="path3078" d="M55.5,1002.345h88.049v47.532l-4.358,6.81,4.358,6.061v27.647H55.5v-44.808l2.724-3.132-2.724-3Z" transform="translate(-55.5 -1002.345)" fill="#016fd0"/>
  <path id="path3082" d="M249.14,1554.658v-13.824h14.637l1.57,2.047,1.622-2.047H320.1v12.87a6.136,6.136,0,0,1-3,.953H287.683l-1.77-2.179v2.179h-5.8v-3.72a4.867,4.867,0,0,1-2.506.519H275.63v3.2h-8.784l-1.568-2.091-1.592,2.091Z" transform="translate(-232.048 -1493.303)" fill="#fff"/>
  <path id="path3080" d="M55.5,1343.317l3.3-7.695h5.708l1.873,4.311v-4.311h7.1l1.115,3.115,1.081-3.115h31.852v1.566a6.871,6.871,0,0,1,4.426-1.566l10.335.036,1.841,4.254v-4.29h5.938l1.634,2.444v-2.444h5.992v13.824H131.7l-1.566-2.451v2.451H121.41l-.877-2.179h-2.345l-.863,2.179h-5.917a5.848,5.848,0,0,1-3.882-1.534v1.534H98.605l-1.771-2.179v2.179H63.663l-.877-2.179H60.448l-.871,2.179H55.5Z" transform="translate(-55.5 -1306.205)" fill="#fff"/>
  <path id="path3046" d="M60.145,1354.929l-4.452,10.351h2.9l.821-2.073h4.775l.817,2.073h2.962l-4.448-10.351Zm1.647,2.409,1.456,3.622H60.332Z" transform="translate(-55.676 -1323.807)" fill="#016fd0"/>
  <path id="path3048" d="M198.223,1365.26v-10.351l4.119.015,2.4,6.673,2.338-6.689h4.086v10.351h-2.588v-7.627l-2.743,7.627h-2.269l-2.751-7.627v7.627Z" transform="translate(-185.625 -1323.789)" fill="#016fd0"/>
  <path id="path3050" d="M364.861,1365.26v-10.351h8.444v2.315h-5.829V1359h5.693v2.179h-5.693v1.839h5.829v2.247Z" transform="translate(-337.555 -1323.789)" fill="#016fd0"/>
  <path id="path3052" d="M477.5,1354.929v10.351h2.588V1361.6h1.09l3.1,3.677h3.162l-3.4-3.813a3.152,3.152,0,0,0,2.839-3.179,3.348,3.348,0,0,0-3.618-3.358Zm2.588,2.315h2.958a1.188,1.188,0,0,1,1.226,1.089,1.169,1.169,0,0,1-1.187,1.09h-3Z" transform="translate(-440.248 -1323.807)" fill="#016fd0"/>
  <path id="path3054" d="M598.329,1365.26h-2.642v-10.351h2.642Z" transform="translate(-548.005 -1323.789)" fill="#016fd0"/>
  <path id="path3056" d="M644.9,1365.26h-.57c-2.759,0-4.435-2.174-4.435-5.133,0-3.032,1.657-5.218,5.141-5.218h2.86v2.452h-2.965a2.49,2.49,0,0,0-2.415,2.792,2.534,2.534,0,0,0,2.792,2.846h.681Z" transform="translate(-588.309 -1323.789)" fill="#016fd0"/>
  <path id="path3058" d="M714.4,1354.929l-4.452,10.351h2.9l.821-2.073h4.775l.817,2.073h2.962l-4.448-10.351Zm1.647,2.409,1.456,3.622h-2.915Z" transform="translate(-652.184 -1323.807)" fill="#016fd0"/>
  <path id="path3060" d="M852.433,1365.26v-10.351h3.29l4.2,6.5v-6.5h2.588v10.351h-3.183l-4.307-6.674v6.674Z" transform="translate(-782.089 -1323.789)" fill="#016fd0"/>
  <path id="path3062" d="M269.2,1570.472v-10.351h8.444v2.315h-5.829v1.771h5.693v2.179h-5.693v1.839h5.829v2.247Z" transform="translate(-250.336 -1510.888)" fill="#016fd0"/>
  <path id="path3064" d="M737.947,1570.472v-10.351h8.444v2.315h-5.829v1.771h5.666v2.179h-5.666v1.839h5.829v2.247Z" transform="translate(-677.708 -1510.888)" fill="#016fd0"/>
  <path id="path3066" d="M367.563,1570.472l4.111-5.112-4.209-5.239h3.26l2.507,3.239,2.515-3.239h3.132l-4.154,5.175,4.119,5.176h-3.26l-2.434-3.188-2.375,3.188Z" transform="translate(-339.928 -1510.887)" fill="#016fd0"/>
  <path id="path3068" d="M499.869,1560.141v10.351h2.656v-3.269h2.724c2.3,0,4.052-1.223,4.052-3.6a3.406,3.406,0,0,0-3.716-3.481Zm2.656,2.341h2.869a1.168,1.168,0,0,1,1.277,1.192,1.194,1.194,0,0,1-1.285,1.192h-2.86v-2.383Z" transform="translate(-460.646 -1510.906)" fill="#016fd0"/>
  <path id="path3072" d="M619.448,1560.121v10.351h2.588v-3.677h1.09l3.1,3.677h3.162l-3.4-3.813a3.152,3.152,0,0,0,2.839-3.179,3.348,3.348,0,0,0-3.618-3.358Zm2.588,2.315h2.958a1.188,1.188,0,0,1,1.226,1.089,1.169,1.169,0,0,1-1.187,1.09h-3Z" transform="translate(-569.669 -1510.887)" fill="#016fd0"/>
  <path id="path3074" d="M843.794,1570.472v-2.247h5.179c.766,0,1.1-.414,1.1-.868,0-.435-.331-.875-1.1-.875h-2.34a2.894,2.894,0,0,1-3.167-3.1c0-1.66,1.037-3.26,4.06-3.26h5.039l-1.09,2.329h-4.358c-.833,0-1.089.437-1.089.854a.9.9,0,0,0,.953.9h2.451c2.268,0,3.252,1.286,3.252,2.971a3.1,3.1,0,0,1-3.375,3.294Z" transform="translate(-773.913 -1510.887)" fill="#016fd0"/>
  <path id="path3076" d="M951.39,1570.472v-2.247h5.179c.766,0,1.1-.414,1.1-.868,0-.435-.331-.875-1.1-.875h-2.34a2.894,2.894,0,0,1-3.167-3.1c0-1.66,1.037-3.26,4.06-3.26h5.039l-1.09,2.329h-4.358c-.833,0-1.09.437-1.09.854a.9.9,0,0,0,.953.9h2.451c2.268,0,3.252,1.286,3.252,2.971a3.1,3.1,0,0,1-3.375,3.294Z" transform="translate(-872.012 -1510.887)" fill="#016fd0"/>
</svg>
