<?xml version="1.0" encoding="utf-8"?>
<!-- Generator: Adobe Illustrator 24.0.0, SVG Export Plug-In . SVG Version: 6.00 Build 0)  -->
<svg version="1.1" id="Card_Machine" xmlns="http://www.w3.org/2000/svg" xmlns:xlink="http://www.w3.org/1999/xlink" x="0px"
	 y="0px" viewBox="0 0 69 116" style="enable-background:new 0 0 69 116;" xml:space="preserve">
<style type="text/css">
	.st0{fill:none;stroke:#000000;stroke-width:2;stroke-miterlimit:10;}
	.st1{fill:none;}
	.st2{fill:none;stroke:#000000;stroke-width:2;}
	.st3{fill:none;stroke:#000000;stroke-width:2;stroke-linecap:round;stroke-miterlimit:10;}
</style>
<path class="st0" d="M5.4,2C3.5,2,2,3.8,2,6v51.7l2.7,52.2l0,0.1v0.1c0,2.2,1.5,4,3.4,4H61c1.9,0,3.4-1.8,3.4-4v-0.1l0-0.1L67,57.7
	V6c0-2.2-1.5-4-3.4-4H5.4"/>
<g id="Group_295" transform="translate(9 7)">
	<g id="Rectangle_19" transform="translate(0.009)">
		<path class="st1" d="M6,0h39c3.3,0,6,2.7,6,6v29c0,3.3-2.7,6-6,6H6c-3.3,0-6-2.7-6-6V6C0,2.7,2.7,0,6,0z"/>
		<path class="st2" d="M6,1h39c2.8,0,5,2.2,5,5v29c0,2.8-2.2,5-5,5H6c-2.8,0-5-2.2-5-5V6C1,3.2,3.2,1,6,1z"/>
	</g>
</g>
<path id="Path_199" class="st3" d="M11.5,63.5h11.1c1.2-0.1,2-1.1,2-2.3v-0.2c-0.1-1.2,0.8-2.2,2-2.3h0.1c1.2,0.1,2,1.1,2,2.3v0.2
	c-0.1,1.2,0.8,2.2,2,2.3h8.6c1.2-0.1,2-1.1,2-2.3v-0.2c-0.1-1.2,0.8-2.2,2-2.3l0,0c1.2,0.1,2,1.1,2,2.3v0.2c-0.1,1.2,0.8,2.2,2,2.3
	h11.2"/>
<path id="Path_200" class="st3" d="M11.5,79.5h11.1c1.2-0.1,2-1.1,2-2.3v-0.2c-0.1-1.2,0.8-2.2,2-2.3h0.1c1.2,0.1,2,1.1,2,2.3v0.2
	c-0.1,1.2,0.8,2.2,2,2.3h8.6c1.2-0.1,2-1.1,2-2.3v-0.2c-0.1-1.2,0.8-2.2,2-2.3l0,0c1.2,0.1,2,1.1,2,2.3v0.2c-0.1,1.2,0.8,2.2,2,2.3
	h11.2"/>
<path id="Path_201" class="st3" d="M11.5,95.5h11.1c1.2-0.1,2-1.1,2-2.3v-0.2c-0.1-1.2,0.8-2.2,2-2.3h0.1c1.2,0.1,2,1.1,2,2.3v0.2
	c-0.1,1.2,0.8,2.2,2,2.3h8.6c1.2-0.1,2-1.1,2-2.3v-0.2c-0.1-1.2,0.8-2.2,2-2.3l0,0c1.2,0.1,2,1.1,2,2.3v0.2c-0.1,1.2,0.8,2.2,2,2.3
	h11.2"/>
</svg>
