<svg id="Completed" xmlns="http://www.w3.org/2000/svg" width="265.721" height="265.721" viewBox="0 0 265.721 265.721">
  <g id="Group_312" data-name="Group 312" transform="translate(-40.755 -328.755)">
    <path id="Path_202" data-name="Path 202" d="M0,0V28.64H50.452" transform="translate(146.311 460.771) rotate(-45)" fill="none" stroke="#618020" stroke-width="2"/>
    <path id="Path_203" data-name="Path 203" d="M67,5A62,62,0,1,1,5,67,62.012,62.012,0,0,1,67,5" transform="translate(107.116 395.116)" fill="none" stroke="#618020" stroke-miterlimit="10" stroke-width="2"/>
  </g>
  <g id="Group_313" data-name="Group 313" transform="translate(-46.64 -328.64)">
    <g id="Group_309" data-name="Group 309" transform="translate(86.005 368.005)">
      <line id="Line_4" data-name="Line 4" y2="21" transform="translate(93.995 -0.005)" fill="none" stroke="#618020" stroke-width="2"/>
      <line id="Line_5" data-name="Line 5" y2="21" transform="translate(93.995 166.995)" fill="none" stroke="#618020" stroke-width="2"/>
      <line id="Line_4-2" data-name="Line 4" y2="20.777" transform="translate(187.893 93.946) rotate(90)" fill="none" stroke="#618020" stroke-width="2"/>
      <line id="Line_5-2" data-name="Line 5" y2="20.777" transform="translate(20.777 93.946) rotate(90)" fill="none" stroke="#618020" stroke-width="2"/>
    </g>
    <g id="Group_310" data-name="Group 310" transform="translate(179.5 328.64) rotate(45)">
      <line id="Line_4-3" data-name="Line 4" y2="20.777" transform="translate(93.946 0)" fill="none" stroke="#618020" stroke-width="2"/>
      <line id="Line_5-3" data-name="Line 5" y2="20.777" transform="translate(93.947 167.116)" fill="none" stroke="#618020" stroke-width="2"/>
      <line id="Line_4-4" data-name="Line 4" y2="20.777" transform="translate(187.893 93.947) rotate(90)" fill="none" stroke="#618020" stroke-width="2"/>
      <line id="Line_5-4" data-name="Line 5" y2="20.777" transform="translate(20.777 93.946) rotate(90)" fill="none" stroke="#618020" stroke-width="2"/>
    </g>
  </g>
</svg>
