<svg id="Visa" xmlns="http://www.w3.org/2000/svg" xmlns:xlink="http://www.w3.org/1999/xlink" width="73.724" height="23.807" viewBox="0 0 73.724 23.807">
  <defs>
    <clipPath id="clip-path">
      <path id="path10273" d="M1842.95-494.592c-.042,3.316,2.955,5.167,5.213,6.267,2.32,1.129,3.1,1.853,3.09,2.862-.018,1.545-1.851,2.227-3.566,2.254a12.443,12.443,0,0,1-6.117-1.454l-1.078,5.045a17.934,17.934,0,0,0,6.624,1.222c6.256,0,10.35-3.088,10.372-7.877.024-6.077-8.406-6.413-8.348-9.13.02-.824.806-1.7,2.529-1.926a11.21,11.21,0,0,1,5.873,1.029l1.047-4.881a15.963,15.963,0,0,0-5.574-1.023c-5.889,0-10.031,3.13-10.064,7.611m25.7-7.19a2.715,2.715,0,0,0-2.535,1.689l-8.937,21.339h6.252l1.244-3.438h7.64l.722,3.438h5.51l-4.808-23.028h-5.087m.874,6.221,1.8,8.647h-4.941l3.137-8.647m-34.154-6.221-4.928,23.028h5.957l4.926-23.028h-5.955m-8.813,0-6.2,15.674-2.508-13.327a2.777,2.777,0,0,0-2.748-2.347h-10.137l-.142.669a24.807,24.807,0,0,1,5.878,1.959,2.521,2.521,0,0,1,1.415,2.023l4.751,18.377h6.3l9.652-23.028h-6.256" transform="translate(-1804.822 502.203)"/>
    </clipPath>
    <linearGradient id="linear-gradient" y1="0.373" x2="0.008" y2="0.373" gradientUnits="objectBoundingBox">
      <stop offset="0" stop-color="#222357"/>
      <stop offset="1" stop-color="#254aa5"/>
    </linearGradient>
  </defs>
  <g id="g10267">
    <g id="g10269" transform="translate(0 0)" clip-path="url(#clip-path)">
      <g id="g10275" transform="translate(-7.72 -23.908)">
        <path id="path10283" d="M0-153.954,72.64-180.7l16.525,44.873L16.526-109.081" transform="translate(0 180.705)" fill="url(#linear-gradient)"/>
      </g>
    </g>
  </g>
</svg>
